<svg xmlns="http://www.w3.org/2000/svg" viewBox="0 0 54.75 9.78"><defs><style>.cls-1{fill:#fff;}</style></defs><title>Asset 4</title><g id="Layer_2" data-name="Layer 2"><g id="Layer_1-2" data-name="Layer 1"><path class="cls-1" d="M0,.61V.19c.67,0,1.24,0,1.71,0L3.48.2l1.74,0H6.1l.72,0a9.33,9.33,0,0,0-.21,2H6.2A8.06,8.06,0,0,0,6,1,4,4,0,0,0,5.18.82c-.34,0-.73,0-1.17,0A10.85,10.85,0,0,0,2.63.85c0,.23,0,.46-.06.66s0,.63,0,1.52V4.5l1.31,0a7.87,7.87,0,0,0,1.34-.09.39.39,0,0,0,.25-.11,1.72,1.72,0,0,0,.12-.56l.05-.41H6L6,4.86,6,6.48H5.61l0-.42a5.38,5.38,0,0,0-.11-.78c0-.06-.12-.1-.25-.14A11.3,11.3,0,0,0,3.5,5.06l-1,0V6.42c0,.6,0,1.18,0,1.75a2,2,0,0,0,.08.75.52.52,0,0,0,.25.18,5.59,5.59,0,0,0,1,.07v.42c-.56,0-1.12-.05-1.68-.05S1,9.55,0,9.59V9.17A5.43,5.43,0,0,0,1,9.1a.41.41,0,0,0,.24-.16,1.67,1.67,0,0,0,.1-.64c0-.09,0-.72,0-1.88V3.36c0-.6,0-1.19,0-1.76A2.16,2.16,0,0,0,1.2.86.45.45,0,0,0,1,.68,5.71,5.71,0,0,0,0,.61Z"/><path class="cls-1" d="M9.19,5A5.74,5.74,0,0,1,9.5,3a4.09,4.09,0,0,1,1.05-1.59A4.9,4.9,0,0,1,12.19.36,5.74,5.74,0,0,1,14.29,0a6,6,0,0,1,2,.31,4.17,4.17,0,0,1,1.46.81,4.27,4.27,0,0,1,.91,1.11,4.51,4.51,0,0,1,.4,1.06,5.4,5.4,0,0,1,.14,1.3A5,5,0,0,1,17.7,8.3a5.15,5.15,0,0,1-3.78,1.48A5.38,5.38,0,0,1,12,9.44a3.88,3.88,0,0,1-1.52-1,4.52,4.52,0,0,1-1-1.61A6,6,0,0,1,9.19,5Zm1.38-.55a7,7,0,0,0,.12,1.28A5.77,5.77,0,0,0,11,6.8a4.12,4.12,0,0,0,.83,1.33A3.21,3.21,0,0,0,13,8.92a3.71,3.71,0,0,0,1.4.26,3.24,3.24,0,0,0,1.85-.52A3.11,3.11,0,0,0,17.41,7.2,5.84,5.84,0,0,0,17.79,5a6.59,6.59,0,0,0-.27-1.94,4.21,4.21,0,0,0-.46-1,3.36,3.36,0,0,0-.68-.77,3.26,3.26,0,0,0-1-.55A4,4,0,0,0,14,.56,3.57,3.57,0,0,0,12.16,1,2.88,2.88,0,0,0,11,2.39,4.78,4.78,0,0,0,10.57,4.4Z"/><path class="cls-1" d="M21.43.61V.19l.79,0,1.27,0c.25,0,.64,0,1.17,0l1.2,0A5.53,5.53,0,0,1,27.7.4a1.86,1.86,0,0,1,.9.73,2.07,2.07,0,0,1,.31,1.11,2.38,2.38,0,0,1-.29,1.1,2.44,2.44,0,0,1-.87.91,4.38,4.38,0,0,1-1.47.56c.11.16.37.5.78,1L28.73,8c.47.61.75,1,.83,1l.12.06a1.76,1.76,0,0,0,.44,0v.42c-.34,0-.63,0-.88,0s-.58,0-1,0c-.29-.33-.77-1-1.44-1.94-.38-.53-.71-1-1-1.33-.47-.6-.91-1.13-1.33-1.61l.07-.2.52,0A2.64,2.64,0,0,0,26.94,4a2,2,0,0,0,.62-1.5A1.64,1.64,0,0,0,27,1.17,2.34,2.34,0,0,0,25.4.69a4.61,4.61,0,0,0-1.33.2c0,.24,0,.46,0,.67s0,.7-.05,1.92V6.42c0,.6,0,1.18,0,1.75a2.13,2.13,0,0,0,.09.75.45.45,0,0,0,.24.18,5.71,5.71,0,0,0,1,.07v.42c-.63,0-1.2-.05-1.73-.05s-1.13,0-2.14.05V9.17a5.59,5.59,0,0,0,1-.07.48.48,0,0,0,.24-.16,1.74,1.74,0,0,0,.09-.64c0-.09,0-.72,0-1.88V3.36c0-.6,0-1.19,0-1.76a2,2,0,0,0-.09-.74.52.52,0,0,0-.25-.18A5.48,5.48,0,0,0,21.43.61Z"/><path class="cls-1" d="M32.24,9.26a14.92,14.92,0,0,0,.12-2h.45a5.56,5.56,0,0,0,.11,1.14,1,1,0,0,0,.37.37,3.18,3.18,0,0,0,.78.36,3.24,3.24,0,0,0,1,.15,2.5,2.5,0,0,0,1.23-.31,2,2,0,0,0,.82-.8,2.34,2.34,0,0,0,.25-1.07,1.9,1.9,0,0,0-.13-.75,1.08,1.08,0,0,0-.39-.52,1.6,1.6,0,0,0-.65-.27l-1-.13c-.49-.07-.91-.13-1.25-.21a2.87,2.87,0,0,1-1-.49,2.11,2.11,0,0,1-.53-.75,2.55,2.55,0,0,1-.2-1,2.77,2.77,0,0,1,.41-1.47A2.75,2.75,0,0,1,33.79.38,4,4,0,0,1,35.52,0a5.56,5.56,0,0,1,1.22.15A5.35,5.35,0,0,1,38,.59c-.06.28-.1.54-.13.78s0,.59-.06,1.06h-.45a6.38,6.38,0,0,0-.06-1.11,1.55,1.55,0,0,0-.45-.43A2.79,2.79,0,0,0,35.41.5a2,2,0,0,0-1.53.59,2.07,2.07,0,0,0-.57,1.51,1.6,1.6,0,0,0,.2.87,1.46,1.46,0,0,0,.74.5,6.9,6.9,0,0,0,1.19.23c.55.07,1.05.15,1.49.23a2.72,2.72,0,0,1,.92.44,2.15,2.15,0,0,1,.49.67,2.43,2.43,0,0,1,.19,1A3,3,0,0,1,37.44,8.8a4.09,4.09,0,0,1-2.83,1A5.28,5.28,0,0,1,32.24,9.26Z"/><path class="cls-1" d="M44.75,9.17v.42c-.94,0-1.56-.05-1.85-.05l-2,.05V9.17a5.71,5.71,0,0,0,1-.07A.41.41,0,0,0,42,8.94a1.49,1.49,0,0,0,.1-.64c0-.09,0-.72,0-1.88V3.36c0-.6,0-1.19,0-1.76a1.92,1.92,0,0,0-.1-.74.45.45,0,0,0-.24-.18,5.48,5.48,0,0,0-1-.07V.19c.85,0,1.5,0,1.95,0s1.09,0,2,0V.61a5.48,5.48,0,0,0-1,.07.41.41,0,0,0-.23.16,1.49,1.49,0,0,0-.1.64c0,.09,0,.72,0,1.88V6.42c0,.6,0,1.18,0,1.75a2.29,2.29,0,0,0,.1.75.45.45,0,0,0,.24.18A5.48,5.48,0,0,0,44.75,9.17Z"/><path class="cls-1" d="M47.49,2.38h-.41c0-1,0-1.78-.07-2.19l2.27.07c.83,0,1.39,0,1.66,0L53,.24c.78,0,1.36,0,1.72,0,0,.5-.09,1.23-.1,2.19h-.43l0-.63c0-.39-.06-.61-.07-.66S54.07,1,54,1a.23.23,0,0,0-.11,0,4.4,4.4,0,0,0-.66-.06l-.9,0h-.81q-.06.63-.06,1.71V6.42c0,.6,0,1.18,0,1.75a2.13,2.13,0,0,0,.09.75.48.48,0,0,0,.25.18,5.43,5.43,0,0,0,1,.07v.42c-.78,0-1.38-.05-1.77-.05-.18,0-.86,0-2.07.05V9.17a5.48,5.48,0,0,0,1-.07.38.38,0,0,0,.23-.16,1.44,1.44,0,0,0,.11-.64c0-.09,0-.72,0-1.88V2.57c0-.19,0-.39,0-.61l0-1.12h-1A9.87,9.87,0,0,0,47.9.91a.29.29,0,0,0-.2.08,2.29,2.29,0,0,0-.14.72Z"/></g></g></svg>